<?xml version="1.0" encoding="UTF-8" standalone="no"?>
<!-- Created with Inkscape (http://www.inkscape.org/) -->

<svg
   width="77.548576mm"
   height="16.856367mm"
   viewBox="0 0 77.548576 16.856367"
   version="1.1"
   id="svg1"
   xml:space="preserve"
   inkscape:version="1.4.2 (f4327f4, 2025-05-13)"
   sodipodi:docname="spruitenlogo.svg"
   inkscape:export-filename="C:\Users\Framework\Desktop\spruitenlogo.svg"
   inkscape:export-xdpi="96"
   inkscape:export-ydpi="96"
   xmlns:inkscape="http://www.inkscape.org/namespaces/inkscape"
   xmlns:sodipodi="http://sodipodi.sourceforge.net/DTD/sodipodi-0.dtd"
   xmlns="http://www.w3.org/2000/svg"
   xmlns:svg="http://www.w3.org/2000/svg"><sodipodi:namedview
     id="namedview1"
     pagecolor="#ffffff"
     bordercolor="#000000"
     borderopacity="0.25"
     inkscape:showpageshadow="2"
     inkscape:pageopacity="0.0"
     inkscape:pagecheckerboard="0"
     inkscape:deskcolor="#d1d1d1"
     inkscape:document-units="mm"
     inkscape:zoom="2.6975028"
     inkscape:cx="198.7023"
     inkscape:cy="313.99412"
     inkscape:window-width="2400"
     inkscape:window-height="1262"
     inkscape:window-x="3592"
     inkscape:window-y="447"
     inkscape:window-maximized="1"
     inkscape:current-layer="layer1"
     showgrid="false"><inkscape:page
       x="0"
       y="0"
       width="77.548576"
       height="16.856367"
       id="page2"
       margin="0"
       bleed="0" /></sodipodi:namedview><defs
     id="defs1" /><g
     id="text4-6-2-2-6"
     inkscape:label="text4-6"
     transform="matrix(0.5660317,0,0,0.5660317,-191.00254,-325.15094)"
     inkscape:export-filename="C:\Users\Framework\Desktop\plannertextwhite.svg"
     inkscape:export-xdpi="96"
     inkscape:export-ydpi="96"
     style="fill:#ffffff;stroke-width:0;stroke-dasharray:none"><path
       style="font-weight:bold;font-size:37.3333px;line-height:1.2;font-family:Quicksand;-inkscape-font-specification:'Quicksand, Bold';baseline-shift:baseline;white-space:pre;display:inline;overflow:visible;fill:#ffffff;stroke-width:0;stroke-linecap:round;stroke-miterlimit:4.6;stroke-dasharray:none;enable-background:accumulate;stop-color:#000000;stop-opacity:1"
       d="m 349.12057,576.82213 q 1.94133,0 3.62133,1.12 1.71733,1.12 2.76267,3.024 1.04533,1.90399 1.04533,4.25599 0,2.31467 -1.04533,4.21867 -1.04534,1.90399 -2.76267,3.06133 -1.68,1.12 -3.62133,1.12 h -6.86933 l 0.37334,-0.672 v 7.72799 q 0,0.97067 -0.59734,1.64266 -0.59733,0.63467 -1.56799,0.63467 -0.93334,0 -1.53067,-0.63467 -0.59733,-0.67199 -0.59733,-1.64266 v -21.57865 q 0,-0.97066 0.63466,-1.60533 0.672,-0.672 1.64267,-0.672 z m 0,12.54399 q 0.70933,0 1.38133,-0.59733 0.672,-0.59734 1.12,-1.53067 0.448,-0.97066 0.448,-2.016 0,-1.08266 -0.448,-2.016 -0.448,-0.93333 -1.12,-1.49333 -0.672,-0.59733 -1.38133,-0.59733 h -6.94399 l 0.448,-0.672 v 9.51999 l -0.41067,-0.59733 z m 16.20268,11.31199 q 0,0.97067 -0.672,1.64266 -0.63467,0.63467 -1.60533,0.63467 -0.93334,0 -1.568,-0.63467 -0.63467,-0.67199 -0.63467,-1.64266 v -23.07198 q 0,-0.97067 0.63467,-1.60533 0.672,-0.672 1.64266,-0.672 0.97067,0 1.568,0.672 0.63467,0.63466 0.63467,1.60533 z m 21.57866,-18.06932 q 0.97067,0 1.60534,0.63467 0.63466,0.63466 0.63466,1.64266 v 15.79199 q 0,0.97067 -0.63466,1.64266 -0.63467,0.63467 -1.60534,0.63467 -0.97066,0 -1.60533,-0.63467 -0.63466,-0.67199 -0.63466,-1.64266 v -1.82933 l 0.82133,0.336 q 0,0.48533 -0.52267,1.19466 -0.52266,0.672 -1.41866,1.344 -0.896,0.672 -2.128,1.15733 -1.19467,0.448 -2.61333,0.448 -2.576,0 -4.66666,-1.30666 -2.09067,-1.344 -3.32267,-3.65867 -1.19466,-2.35199 -1.19466,-5.37599 0,-3.06133 1.19466,-5.376 1.232,-2.35199 3.28533,-3.65866 2.05333,-1.344 4.55467,-1.344 1.60533,0 2.94933,0.48533 1.344,0.48534 2.31466,1.232 1.008,0.74667 1.53067,1.53067 0.56,0.74666 0.56,1.26933 l -1.344,0.48533 v -2.72533 q 0,-0.97066 0.63466,-1.60533 0.63467,-0.672 1.60533,-0.672 z m -7.54132,16.61332 q 1.64266,0 2.87466,-0.82133 1.232,-0.82133 1.904,-2.24 0.70933,-1.41867 0.70933,-3.17333 0,-1.792 -0.70933,-3.21066 -0.672,-1.41867 -1.904,-2.24 -1.232,-0.82134 -2.87466,-0.82134 -1.60533,0 -2.83733,0.82134 -1.232,0.82133 -1.94133,2.24 -0.672,1.41866 -0.672,3.21066 0,1.75466 0.672,3.17333 0.70933,1.41867 1.94133,2.24 1.232,0.82133 2.83733,0.82133 z m 25.31199,-16.61332 q 2.76266,0 4.18133,1.15733 1.456,1.15734 1.97866,3.09867 0.56,1.904 0.56,4.25599 v 9.55733 q 0,0.97067 -0.63466,1.64266 -0.63467,0.63467 -1.60534,0.63467 -0.97066,0 -1.60533,-0.63467 -0.63466,-0.67199 -0.63466,-1.64266 v -9.55733 q 0,-1.23199 -0.336,-2.20266 -0.29867,-1.008 -1.12,-1.60533 -0.82134,-0.59734 -2.352,-0.59734 -1.49333,0 -2.53867,0.59734 -1.008,0.59733 -1.56799,1.60533 -0.52267,0.97067 -0.52267,2.20266 v 9.55733 q 0,0.97067 -0.63467,1.64266 -0.63466,0.63467 -1.60533,0.63467 -0.97066,0 -1.60533,-0.63467 -0.63467,-0.67199 -0.63467,-1.64266 v -15.41865 q 0,-0.97067 0.63467,-1.60534 0.63467,-0.672 1.60533,-0.672 0.97067,0 1.60533,0.672 0.63467,0.63467 0.63467,1.60534 v 1.60533 l -0.56,-0.112 q 0.336,-0.63467 0.97067,-1.344 0.63466,-0.74667 1.49333,-1.38133 0.85866,-0.63467 1.94133,-1.008 1.08266,-0.41067 2.352,-0.41067 z m 22.25067,0 q 2.76266,0 4.18133,1.15733 1.456,1.15734 1.97866,3.09867 0.56,1.904 0.56,4.25599 v 9.55733 q 0,0.97067 -0.63466,1.64266 -0.63467,0.63467 -1.60534,0.63467 -0.97066,0 -1.60533,-0.63467 -0.63466,-0.67199 -0.63466,-1.64266 v -9.55733 q 0,-1.23199 -0.336,-2.20266 -0.29867,-1.008 -1.12,-1.60533 -0.82133,-0.59734 -2.352,-0.59734 -1.49333,0 -2.53866,0.59734 -1.008,0.59733 -1.568,1.60533 -0.52267,0.97067 -0.52267,2.20266 v 9.55733 q 0,0.97067 -0.63467,1.64266 -0.63466,0.63467 -1.60533,0.63467 -0.97066,0 -1.60533,-0.63467 -0.63467,-0.67199 -0.63467,-1.64266 v -15.41865 q 0,-0.97067 0.63467,-1.60534 0.63467,-0.672 1.60533,-0.672 0.97067,0 1.60533,0.672 0.63467,0.63467 0.63467,1.60534 v 1.60533 l -0.56,-0.112 q 0.336,-0.63467 0.97067,-1.344 0.63466,-0.74667 1.49333,-1.38133 0.85866,-0.63467 1.94133,-1.008 1.08267,-0.41067 2.352,-0.41067 z m 20.98134,20.71998 q -3.17333,0 -5.52533,-1.30666 -2.31467,-1.344 -3.584,-3.62133 -1.232,-2.27733 -1.232,-5.152 0,-3.35999 1.344,-5.71199 1.38133,-2.38933 3.584,-3.65867 2.20266,-1.26933 4.66666,-1.26933 1.904,0 3.584,0.784 1.71733,0.784 3.024,2.16533 1.30666,1.344 2.05333,3.136 0.784,1.792 0.784,3.808 -0.0373,0.896 -0.70934,1.456 -0.672,0.55999 -1.56799,0.55999 h -14.26133 l -1.11999,-3.73333 h 13.70132 l -0.82134,0.74667 v -1.008 q -0.0747,-1.08266 -0.784,-1.94133 -0.67199,-0.85867 -1.71733,-1.344 -1.008,-0.52267 -2.16533,-0.52267 -1.12,0 -2.09066,0.29867 -0.97067,0.29867 -1.68,1.008 -0.70933,0.70933 -1.12,1.904 -0.41067,1.19466 -0.41067,3.024 0,2.01599 0.82134,3.43466 0.85866,1.38133 2.16533,2.128 1.344,0.70933 2.83733,0.70933 1.38133,0 2.20266,-0.224 0.82134,-0.224 1.30667,-0.52267 0.52266,-0.33599 0.93333,-0.55999 0.672,-0.336 1.26933,-0.336 0.82134,0 1.344,0.56 0.56,0.55999 0.56,1.30666 0,1.008 -1.04533,1.82933 -0.97067,0.82134 -2.72533,1.456 -1.75467,0.59733 -3.62133,0.59733 z m 14.85866,-0.37333 q -0.97067,0 -1.60533,-0.63467 -0.63467,-0.67199 -0.63467,-1.64266 v -15.41865 q 0,-0.97067 0.63467,-1.60534 0.63466,-0.672 1.60533,-0.672 0.97067,0 1.60533,0.672 0.63467,0.63467 0.63467,1.60534 v 3.50933 l -0.26133,-2.50133 q 0.41066,-0.896 1.04533,-1.568 0.672,-0.70934 1.49333,-1.15734 0.82133,-0.48533 1.75467,-0.70933 0.93333,-0.224 1.86666,-0.224 1.12,0 1.86667,0.63467 0.78399,0.63466 0.78399,1.49333 0,1.232 -0.63466,1.792 -0.63467,0.52266 -1.38133,0.52266 -0.70934,0 -1.30667,-0.26133 -0.56,-0.26133 -1.30666,-0.26133 -0.672,0 -1.38134,0.336 -0.672,0.29866 -1.26933,0.97066 -0.56,0.672 -0.93333,1.68 -0.336,0.97067 -0.336,2.31467 v 8.84799 q 0,0.97067 -0.63467,1.64266 -0.63466,0.63467 -1.60533,0.63467 z"
       id="path1-8" /><path
       style="font-weight:bold;font-size:37.3333px;line-height:1.2;font-family:Quicksand;-inkscape-font-specification:'Quicksand, Bold';baseline-shift:baseline;white-space:pre;display:inline;overflow:visible;fill:#ffffff;fill-opacity:0;stroke-width:0;stroke-linecap:round;stroke-miterlimit:4.6;stroke-dasharray:none;enable-background:accumulate;stop-color:#000000;stop-opacity:1"
       d="m 363.12109,574.43945 c -0.85251,0 -1.67392,0.33213 -2.27343,0.93164 -0.58355,0.58354 -0.89454,1.39327 -0.89454,2.23438 v 23.07226 c 0,0.84111 0.30695,1.65039 0.87696,2.25391 l 0.01,0.01 0.008,0.008 c 0.57736,0.57738 1.37524,0.89648 2.19921,0.89648 0.84111,0 1.65084,-0.31294 2.23438,-0.89648 0.59952,-0.59951 0.93164,-1.41897 0.93164,-2.27149 v -23.07226 c 0,-0.83376 -0.31298,-1.6325 -0.88672,-2.21485 -0.55679,-0.61082 -1.36414,-0.95117 -2.20508,-0.95117 z m -22.51172,1.49219 c -0.85251,0 -1.67391,0.33408 -2.27343,0.93359 -0.58354,0.58355 -0.89453,1.39328 -0.89453,2.23438 v 21.57812 c 0,0.8297 0.28266,1.62733 0.82226,2.23438 l 0.008,0.01 0.01,0.01 c 0.55679,0.5916 1.35376,0.91406 2.17773,0.91406 0.84111,0 1.65367,-0.31573 2.2168,-0.91406 l 0.008,-0.01 0.01,-0.01 c 0.53961,-0.60704 0.82226,-1.40468 0.82226,-2.23438 v -6.16601 h 5.60547 c 1.46539,0 2.86358,-0.43509 4.11524,-1.26953 h 0.002 l 0.002,-0.002 c 1.26307,-0.8512 2.28569,-1.98821 3.04493,-3.37109 0.77011,-1.40271 1.15429,-2.96938 1.15429,-4.64648 0,-1.69987 -0.383,-3.28069 -1.15429,-4.68555 -0.76042,-1.38504 -1.78767,-2.51225 -3.05664,-3.33984 -1.24975,-0.8312 -2.64495,-1.26563 -4.10743,-1.26563 z m 22.51172,0.28711 c 0.44171,0 0.66318,0.10398 0.90235,0.37305 l 0.0176,0.0195 0.0176,0.0195 c 0.26268,0.26267 0.375,0.52149 0.375,0.97461 v 23.07226 c 0,0.44172 -0.11563,0.7172 -0.41211,1.01368 -0.26268,0.26268 -0.52149,0.37304 -0.97461,0.37304 -0.41429,0 -0.66141,-0.10702 -0.92578,-0.36718 -0.26958,-0.28907 -0.38867,-0.57148 -0.38867,-1.01954 v -23.07226 c 0,-0.45312 0.11232,-0.71194 0.375,-0.97461 0.29649,-0.29648 0.57197,-0.41211 1.01367,-0.41211 z m -22.51172,1.49414 h 2.76758 l -2.86328,4.29297 h 1.2207 v 6.4707 h -1.21289 l 1.97461,2.8711 -1.75781,3.16406 h 0.99609 v 6.16601 c 0,0.45939 -0.11823,0.75311 -0.36914,1.03907 -0.22984,0.23996 -0.45997,0.34765 -0.90625,0.34765 -0.4139,0 -0.63371,-0.10175 -0.86914,-0.34765 -0.2509,-0.28596 -0.36914,-0.57968 -0.36914,-1.03907 v -21.57812 c 0,-0.45312 0.11232,-0.71388 0.375,-0.97656 0.29648,-0.29648 0.57196,-0.41016 1.01367,-0.41016 z m 2.90625,0 h 5.60547 c 1.12305,0 2.13862,0.31181 3.12696,0.9707 l 0.004,0.002 0.004,0.002 c 1.02079,0.66574 1.83538,1.55341 2.46875,2.70703 0.62248,1.1338 0.93555,2.39199 0.93555,3.82813 0,1.40912 -0.31189,2.65311 -0.93555,3.78906 -0.63455,1.15577 -1.45376,2.06003 -2.48047,2.75195 -0.98713,0.65714 -2.00145,0.96875 -3.12305,0.96875 h -5.60547 v -2.47656 h 5.60547 c 0.72274,0 1.40843,-0.32073 1.97266,-0.82227 0.54664,-0.4859 0.98834,-1.09859 1.33008,-1.81054 l 0.004,-0.006 0.002,-0.006 c 0.34961,-0.75749 0.53125,-1.56463 0.53125,-2.38867 0,-0.84455 -0.18035,-1.65908 -0.53711,-2.40235 -0.34141,-0.71127 -0.78701,-1.3138 -1.3418,-1.77929 -0.56225,-0.49627 -1.24262,-0.81641 -1.96094,-0.81641 h -5.60547 z m 35.13477,4.00586 c -1.82636,0 -3.53197,0.50419 -5.03906,1.49023 -1.5006,0.95734 -2.70551,2.3057 -3.58789,3.99024 l -0.002,0.002 -0.002,0.002 c -0.86979,1.68523 -1.29297,3.62849 -1.29297,5.78516 0,2.13321 0.42483,4.07203 1.29102,5.77734 l 0.004,0.008 0.004,0.008 c 0.88588,1.66438 2.10456,3.01155 3.62695,3.99023 l 0.006,0.002 0.004,0.004 c 1.5331,0.95819 3.27084,1.44141 5.13867,1.44141 1.03947,0 2.02088,-0.16457 2.92578,-0.50391 l 0.006,-0.004 0.008,-0.002 c 0.88322,-0.34793 1.66424,-0.76965 2.33594,-1.27343 0.11262,-0.0845 0.17171,-0.1783 0.27735,-0.26368 0.1308,0.2436 0.10468,0.55627 0.29687,0.75977 l 0.008,0.01 0.01,0.008 c 0.58354,0.58354 1.39327,0.89648 2.23437,0.89648 0.84111,0 1.65084,-0.31294 2.23438,-0.89648 l 0.01,-0.008 0.008,-0.01 c 0.57,-0.60352 0.87695,-1.4128 0.87695,-2.25391 v -15.79101 c 0,-0.85881 -0.30482,-1.68373 -0.89453,-2.27344 -0.58354,-0.58354 -1.39327,-0.89453 -2.23438,-0.89453 -0.84675,0 -1.6603,0.33656 -2.23828,0.94141 -0.22972,0.23114 -0.2111,0.59325 -0.35351,0.88281 -0.70219,-0.51789 -1.49499,-0.95538 -2.40821,-1.28516 -1.00247,-0.362 -2.09203,-0.53906 -3.25195,-0.53906 z m 26.02148,0 c -0.93875,0 -1.82919,0.15444 -2.65625,0.4668 -0.79351,0.2754 -1.52147,0.65054 -2.16601,1.12695 -0.34941,0.25825 -0.61947,0.5657 -0.92188,0.85352 -0.14986,-0.38725 -0.1583,-0.83617 -0.45312,-1.13282 -0.57797,-0.60485 -1.39348,-0.9414 -2.24024,-0.9414 -0.84674,0 -1.6603,0.33656 -2.23828,0.9414 -0.57947,0.58307 -0.89062,1.3885 -0.89062,2.22657 v 15.41796 c 0,0.84111 0.30695,1.65039 0.87695,2.25391 l 0.01,0.01 0.008,0.008 c 0.58354,0.58354 1.39327,0.89648 2.23437,0.89648 0.84111,0 1.65279,-0.31293 2.23633,-0.89648 l 0.008,-0.008 0.01,-0.01 c 0.57001,-0.60352 0.87695,-1.4128 0.87695,-2.25391 v -9.55664 c 0,-0.69311 0.14195,-1.26793 0.41407,-1.77539 0.29776,-0.53407 0.69467,-0.94029 1.23437,-1.26172 0.53765,-0.30599 1.21743,-0.47851 2.0918,-0.47851 0.90465,0 1.49327,0.1842 1.82812,0.42773 0.39646,0.28833 0.63948,0.63384 0.78907,1.13867 l 0.006,0.0176 0.008,0.0195 c 0.18592,0.53712 0.28711,1.1717 0.28711,1.91211 v 9.55664 c 0,0.84111 0.30695,1.65039 0.87695,2.25391 l 0.008,0.01 0.01,0.008 c 0.58354,0.58354 1.39327,0.89648 2.23437,0.89648 0.84111,0 1.65084,-0.31294 2.23438,-0.89648 l 0.01,-0.008 0.008,-0.01 c 0.57,-0.60352 0.8789,-1.4128 0.8789,-2.25391 v -9.55664 c 0,-1.63575 -0.1958,-3.13739 -0.5957,-4.5 -0.39138,-1.44439 -1.16109,-2.65957 -2.27539,-3.54687 -1.16481,-0.94852 -2.77603,-1.35547 -4.74024,-1.35547 z m 22.25196,0 c -0.93875,0 -1.83114,0.15444 -2.65821,0.4668 -0.7935,0.27539 -1.51952,0.65054 -2.16406,1.12695 -0.35017,0.25882 -0.62086,0.56695 -0.92383,0.85547 -0.14986,-0.38792 -0.15786,-0.83768 -0.45312,-1.13477 -0.57797,-0.60485 -1.39153,-0.9414 -2.23828,-0.9414 -0.84675,0 -1.6603,0.33656 -2.23828,0.9414 -0.57948,0.58307 -0.89258,1.3885 -0.89258,2.22657 v 15.41796 c 0,0.84111 0.3089,1.65039 0.8789,2.25391 l 0.008,0.01 0.01,0.008 c 0.58355,0.58354 1.39328,0.89648 2.23438,0.89648 0.8411,0 1.65083,-0.31293 2.23437,-0.89648 l 0.01,-0.008 0.008,-0.01 c 0.57001,-0.60352 0.87695,-1.4128 0.87695,-2.25391 v -9.55664 c 0,-0.69311 0.1439,-1.26793 0.41602,-1.77539 0.29776,-0.53407 0.69273,-0.94029 1.23242,-1.26172 0.53764,-0.30599 1.21743,-0.47851 2.0918,-0.47851 0.90466,0 1.49328,0.18421 1.82812,0.42773 0.39646,0.28833 0.64144,0.63384 0.79102,1.13867 l 0.006,0.0176 0.006,0.0195 c 0.18592,0.53712 0.28711,1.1717 0.28711,1.91211 v 9.55664 c 0,0.84111 0.30695,1.65039 0.87695,2.25391 l 0.01,0.01 0.008,0.008 c 0.58354,0.58354 1.39327,0.89648 2.23437,0.89648 0.84111,0 1.65279,-0.31294 2.23633,-0.89648 l 0.008,-0.008 0.01,-0.01 c 0.57,-0.60352 0.87695,-1.4128 0.87695,-2.25391 v -9.55664 c 0,-1.63575 -0.19385,-3.13739 -0.59375,-4.5 -0.39163,-1.44534 -1.16382,-2.66137 -2.27929,-3.54882 -1.16456,-0.94661 -2.77397,-1.35352 -4.73633,-1.35352 z m 20.23437,0 c -1.79551,0 -3.51848,0.47076 -5.11133,1.38867 -1.60803,0.92667 -2.92084,2.27314 -3.91015,3.98438 l -0.002,0.002 v 0.002 c -0.98659,1.72653 -1.46094,3.79368 -1.46094,6.15235 0,2.0436 0.44198,3.92009 1.33789,5.57617 l 0.004,0.006 0.002,0.004 c 0.92198,1.65415 2.24326,2.98689 3.91406,3.95704 l 0.008,0.006 0.008,0.004 c 1.71655,0.95364 3.71931,1.41797 5.95703,1.41797 1.33938,0 2.64727,-0.21528 3.9082,-0.64453 l 0.008,-0.002 0.008,-0.004 c 1.22956,-0.44473 2.22123,-0.96468 2.98243,-1.60547 0.82893,-0.6559 1.37695,-1.5428 1.37695,-2.51758 0,-0.71459 -0.31052,-1.40783 -0.81641,-1.91992 -0.50673,-0.53544 -1.23444,-0.83594 -1.97851,-0.83594 -0.56511,0 -1.12562,0.15851 -1.66797,0.42969 l -0.0137,0.008 -0.0137,0.008 c -0.29867,0.1629 -0.62633,0.35911 -0.98829,0.59179 l 0.0137,-0.01 c -0.21727,0.1337 -0.58061,0.28725 -1.07422,0.42187 -0.42535,0.11601 -1.09598,0.19336 -1.96875,0.19336 -0.84846,0 -1.63401,-0.19818 -2.4043,-0.60156 -0.72953,-0.41946 -1.33274,-1.00749 -1.83203,-1.80664 -0.0782,-0.13616 -0.0555,-0.36784 -0.12109,-0.51563 h 11.0039 c 0.78276,0 1.53926,-0.26775 2.13672,-0.76562 0.62116,-0.5176 0.99551,-1.29193 1.0293,-2.10352 l 0.002,-0.0176 v -0.0195 c 0,-1.45662 -0.28779,-2.85142 -0.85742,-4.15625 -0.53645,-1.28522 -1.28051,-2.42507 -2.22461,-3.39843 l -0.002,-0.002 c -0.9467,-1.00028 -2.05271,-1.79244 -3.29883,-2.36133 -1.23469,-0.57487 -2.56439,-0.86523 -3.95313,-0.86523 z m 23.74414,0 c -0.69342,0 -1.38653,0.083 -2.07422,0.24805 -0.70242,0.16858 -1.36825,0.43973 -1.98828,0.80468 -0.54583,0.29964 -1.03017,0.70386 -1.48437,1.14844 -0.14263,-0.29095 -0.12285,-0.65462 -0.35352,-0.88672 -0.57797,-0.60485 -1.39152,-0.9414 -2.23828,-0.9414 -0.84675,0 -1.66031,0.33655 -2.23828,0.9414 -0.57947,0.58307 -0.89258,1.3885 -0.89258,2.22657 v 15.41796 c 0,0.84111 0.3089,1.65039 0.87891,2.25391 l 0.008,0.01 0.01,0.008 c 0.58354,0.58355 1.39327,0.89648 2.23437,0.89648 0.84111,0 1.65084,-0.31293 2.23438,-0.89648 l 0.01,-0.008 0.008,-0.01 c 0.57001,-0.60352 0.87696,-1.4128 0.87696,-2.25391 v -8.84765 c 0,-0.81783 0.10434,-1.4877 0.28515,-2.01367 0.21807,-0.58613 0.48102,-1.04703 0.77149,-1.39844 0.32726,-0.36508 0.64791,-0.60372 0.95508,-0.74024 l 0.01,-0.004 0.01,-0.004 c 0.37462,-0.17745 0.70034,-0.25195 1,-0.25195 0.39393,0 0.69372,0.0696 0.92969,0.17969 l 0.01,0.004 0.01,0.004 c 0.51675,0.22608 1.08186,0.33594 1.66406,0.33594 0.70546,0 1.39193,-0.26729 1.94726,-0.72461 l 0.0117,-0.01 0.01,-0.0117 c 0.66592,-0.58758 0.9375,-1.48481 0.9375,-2.45898 0,-0.8392 -0.43781,-1.62942 -1.10742,-2.17578 -0.66401,-0.56075 -1.52252,-0.8418 -2.4336,-0.8418 z m -127.38672,0.28711 h 5.60547 c 0.22304,0 0.45729,0.0781 0.78907,0.37305 l 0.0117,0.008 0.01,0.01 c 0.33591,0.27993 0.63508,0.66701 0.88867,1.19532 0.24057,0.50118 0.35938,1.03185 0.35938,1.63086 0,0.56766 -0.11741,1.10195 -0.36328,1.63671 -0.25487,0.52893 -0.55848,0.93501 -0.90625,1.24415 -0.33178,0.2949 -0.56603,0.37304 -0.78907,0.37304 h -5.60547 z m 35.13477,1.49219 c 0.98052,0 1.85892,0.14849 2.64844,0.43359 0.82324,0.29729 1.5106,0.66606 2.07422,1.09961 l 0.006,0.006 0.006,0.004 c 0.17896,0.13256 0.23768,0.25225 0.38671,0.38281 v 2.59765 c -0.35506,-0.40445 -0.59269,-0.92443 -1.04296,-1.22461 -0.97325,-0.64883 -2.12374,-0.9707 -3.36719,-0.9707 -1.22202,0 -2.36224,0.32417 -3.33203,0.9707 -0.95254,0.63503 -1.7098,1.51335 -2.24414,2.58204 l -0.004,0.008 -0.004,0.01 c -0.51007,1.07681 -0.75781,2.28587 -0.75781,3.5918 0,1.2834 0.24904,2.47865 0.75781,3.55274 l 0.004,0.01 0.004,0.008 c 0.53434,1.06869 1.2916,1.94701 2.24414,2.58203 0.96979,0.64653 2.11001,0.97071 3.33203,0.97071 1.24345,0 2.39394,-0.32188 3.36719,-0.97071 0.45027,-0.30017 0.6879,-0.82015 1.04296,-1.2246 v 2.375 c -0.23641,0.2377 -0.42774,0.46875 -0.76367,0.7207 -0.52023,0.39018 -1.15592,0.73701 -1.91015,1.03515 -0.6871,0.25716 -1.4462,0.39258 -2.29688,0.39258 -1.56461,0 -2.93645,-0.38813 -4.18945,-1.16992 -1.26101,-0.81176 -2.25434,-1.90144 -3.00977,-3.31836 -0.72361,-1.42851 -1.0957,-3.06817 -1.0957,-4.96289 0,-1.92266 0.37247,-3.56306 1.09375,-4.96289 0.75846,-1.44796 1.74177,-2.53773 2.97461,-3.32227 l 0.006,-0.002 0.004,-0.004 c 1.23032,-0.8053 2.55827,-1.19922 4.06641,-1.19922 z m 8.25195,0 c 0.45312,0 0.71193,0.11231 0.97461,0.375 0.25651,0.2565 0.375,0.52847 0.375,1.01367 v 15.79101 c 0,0.44731 -0.12007,0.72901 -0.38867,1.01758 -0.25908,0.25507 -0.51397,0.36914 -0.96094,0.36914 -0.44697,0 -0.70379,-0.11405 -0.96289,-0.36914 -0.20012,-0.215 -0.24421,-0.47834 -0.28906,-0.75781 0.003,-0.004 0.0103,-0.007 0.0137,-0.0117 l 0.006,-0.01 0.008,-0.008 c 0.40596,-0.55093 0.69532,-1.07958 0.69532,-1.72265 v -0.59766 l -2.35352,-0.96289 c 0.29176,-0.37624 0.70619,-0.63242 0.91797,-1.07813 0.53502,-1.07439 0.80078,-2.27306 0.80078,-3.55859 0,-1.3079 -0.26435,-2.52039 -0.80078,-3.59766 -0.14008,-0.2948 -0.43201,-0.44784 -0.60742,-0.71289 l 2.5664,-0.92578 v -0.625 c 0,-0.65765 -0.30433,-1.21168 -0.72851,-1.78125 -0.13958,-0.20736 -0.39622,-0.37842 -0.57031,-0.57422 0.0237,-0.36166 0.0965,-0.62972 0.32812,-0.86132 l 0.01,-0.01 0.008,-0.008 c 0.26758,-0.28333 0.51728,-0.39453 0.95898,-0.39453 z m 17.76953,0 c 1.71749,0 2.89265,0.36436 3.61915,0.95703 l 0.004,0.004 0.006,0.004 c 0.82151,0.653 1.36583,1.49607 1.67188,2.63281 l 0.004,0.01 0.002,0.01 c 0.34533,1.17416 0.52343,2.50851 0.52343,4.00586 v 9.55664 c 0,0.44731 -0.11812,0.72902 -0.38672,1.01758 -0.25909,0.25509 -0.51591,0.36914 -0.96289,0.36914 -0.44588,0 -0.70247,-0.11344 -0.96093,-0.36718 -0.26958,-0.28907 -0.38868,-0.57148 -0.38868,-1.01954 v -9.55664 c 0,-0.89168 -0.12507,-1.7148 -0.38086,-2.46484 -0.2499,-0.8339 -0.74619,-1.5569 -1.4414,-2.0625 -0.76027,-0.55292 -1.73878,-0.76758 -2.875,-0.76758 -1.11423,0 -2.12505,0.22408 -2.98047,0.71289 l -0.006,0.004 -0.008,0.004 c -0.31525,0.18682 -0.48119,0.52311 -0.7461,0.76563 v -1.05664 c 0.0741,-0.0902 0.0995,-0.15995 0.1836,-0.25391 l 0.008,-0.008 0.008,-0.01 c 0.37542,-0.44167 0.82119,-0.85399 1.34375,-1.24023 0.49573,-0.36641 1.05974,-0.66096 1.70313,-0.88281 l 0.0117,-0.004 0.0137,-0.006 c 0.61392,-0.23287 1.28492,-0.35351 2.03515,-0.35351 z m 22.25196,0 c 1.71748,0 2.89069,0.36436 3.61719,0.95703 l 0.006,0.004 0.004,0.004 c 0.82151,0.653 1.36779,1.49607 1.67383,2.63281 l 0.002,0.01 0.002,0.01 c 0.34533,1.17416 0.52539,2.50851 0.52539,4.00586 v 9.55664 c 0,0.44731 -0.12007,0.72901 -0.38868,1.01758 -0.25909,0.25509 -0.51591,0.36914 -0.96289,0.36914 -0.44696,0 -0.70185,-0.11407 -0.96093,-0.36914 -0.2686,-0.28857 -0.38868,-0.57027 -0.38868,-1.01758 v -9.55664 c 0,-0.89168 -0.12507,-1.7148 -0.38086,-2.46484 -0.2499,-0.8339 -0.74619,-1.5569 -1.4414,-2.0625 -0.76027,-0.55293 -1.73877,-0.76758 -2.875,-0.76758 -1.11423,0 -2.12506,0.22408 -2.98047,0.71289 l -0.006,0.004 -0.006,0.004 c -0.31549,0.18696 -0.48297,0.52288 -0.74805,0.76563 v -1.05469 c 0.0746,-0.0909 0.10075,-0.16108 0.18555,-0.25586 l 0.006,-0.008 0.008,-0.01 c 0.37542,-0.44167 0.82119,-0.85399 1.34375,-1.24023 0.49573,-0.36641 1.05974,-0.66096 1.70313,-0.88281 l 0.0137,-0.004 0.0117,-0.006 c 0.61393,-0.23287 1.28688,-0.35351 2.03711,-0.35351 z m 20.23437,0 c 1.14717,0 2.2038,0.23299 3.20703,0.70117 l 0.004,0.002 0.004,0.002 c 1.04281,0.47607 1.95098,1.12626 2.74609,1.9668 l 0.004,0.004 0.004,0.004 c 0.79235,0.815 1.41383,1.76194 1.8711,2.85938 l 0.002,0.006 0.004,0.008 c 0.47034,1.07508 0.70192,2.20858 0.70507,3.42774 -0.0184,0.37074 -0.11442,0.56964 -0.38476,0.79492 -0.29854,0.24878 -0.58615,0.35547 -0.99805,0.35547 h -11.41992 c -0.025,-0.25339 -0.16016,-0.4016 -0.16016,-0.67969 0,-0.53699 0.11581,-0.84043 0.16993,-1.27344 h 8.01757 v 1.86719 l 4.01368,-3.64844 h -2.4629 c -0.14552,-0.66461 -0.31161,-1.33349 -0.7539,-1.87109 -0.53112,-0.67464 -1.21839,-1.2073 -2.01953,-1.58203 -0.7902,-0.40569 -1.6548,-0.61524 -2.55274,-0.61524 -0.82578,0 -1.61443,0.11048 -2.35351,0.33789 -0.77817,0.23944 -1.47461,0.65625 -2.04688,1.22852 -0.58882,0.58882 -1.02464,1.34992 -1.33203,2.24414 -0.0248,0.0722 -0.0125,0.1835 -0.0352,0.25781 h -2.45117 c 0.19726,-0.68059 0.41326,-1.34263 0.73828,-1.91211 v -0.002 c 4e-4,-7e-4 0.002,-10e-4 0.002,-0.002 0.8521,-1.47255 1.92818,-2.56498 3.25586,-3.33008 1.34403,-0.77453 2.73283,-1.15039 4.22265,-1.15039 z m 23.74414,0 c 0.57854,0 0.95862,0.14294 1.28907,0.42382 l 0.01,0.006 0.008,0.008 c 0.37008,0.29959 0.45313,0.49922 0.45313,0.80078 0,0.66146 -0.15226,0.95297 -0.33008,1.11328 -0.28132,0.22636 -0.5118,0.3125 -0.79492,0.3125 -0.36359,0 -0.67148,-0.0651 -0.95117,-0.1875 l 0.0195,0.01 c -0.51071,-0.23832 -1.08003,-0.3457 -1.68164,-0.3457 -0.59308,0 -1.18562,0.15216 -1.75391,0.41992 -0.47446,0.21269 -0.88249,0.57837 -1.27734,0.96875 v -0.9029 c 0.172,-0.28007 0.32482,-0.58343 0.54101,-0.8125 0.38783,-0.40938 0.80967,-0.73531 1.27344,-0.98828 l 0.0137,-0.008 0.0117,-0.008 c 0.47206,-0.27894 0.97178,-0.48025 1.50977,-0.60937 0.55675,-0.13362 1.10914,-0.20117 1.66015,-0.20117 z m -74.66797,0.375 c 0.44172,0 0.69141,0.10926 0.95899,0.39257 l 0.01,0.01 0.008,0.008 c 0.26268,0.26269 0.375,0.52344 0.375,0.97657 v 0.43945 c -0.1462,0.2113 -0.34482,0.42476 -0.45703,0.63672 l -0.5586,1.05468 2.27344,0.45704 c -0.18887,0.23229 -0.47573,0.3735 -0.62305,0.63867 l -0.004,0.004 -0.002,0.006 c -0.42297,0.78552 -0.6289,1.67781 -0.6289,2.625 v 9.55664 c 0,0.44731 -0.12007,0.72901 -0.38867,1.01758 -0.25909,0.25508 -0.51591,0.36914 -0.9629,0.36914 -0.44696,0 -0.70185,-0.11407 -0.96093,-0.36914 -0.26861,-0.28857 -0.38867,-0.57027 -0.38867,-1.01758 v -15.41796 c 0,-0.45313 0.11231,-0.71388 0.375,-0.97657 l 0.008,-0.008 0.01,-0.01 c 0.26759,-0.28332 0.51533,-0.39257 0.95703,-0.39257 z m 22.25196,0 c 0.44171,0 0.68945,0.10926 0.95703,0.39257 l 0.01,0.01 0.008,0.008 c 0.26268,0.26269 0.375,0.52344 0.375,0.97657 v 0.43945 c -0.1462,0.2113 -0.34482,0.42476 -0.45703,0.63672 l -0.5586,1.05468 2.27539,0.45704 c -0.18911,0.23249 -0.47753,0.37323 -0.625,0.63867 l -0.004,0.004 -0.002,0.006 c -0.42297,0.78552 -0.6289,1.67781 -0.6289,2.625 v 9.55664 c 0,0.44731 -0.12007,0.72901 -0.38867,1.01758 -0.25908,0.25507 -0.51397,0.36914 -0.96094,0.36914 -0.44697,0 -0.7038,-0.11405 -0.96289,-0.36914 -0.2686,-0.28856 -0.38672,-0.57028 -0.38672,-1.01758 v -15.41796 c 0,-0.45313 0.11036,-0.71388 0.37305,-0.97657 l 0.01,-0.008 0.008,-0.01 c 0.26759,-0.28332 0.51729,-0.39257 0.95899,-0.39257 z m 44.27734,0 c 0.44171,0 0.68946,0.10926 0.95703,0.39257 l 0.01,0.01 0.008,0.008 c 0.26268,0.26269 0.375,0.52344 0.375,0.97657 v 0.36718 c -0.0504,0.0979 -0.13335,0.16844 -0.17969,0.26953 l -0.10156,0.22071 0.28516,2.74414 0.59765,-0.0312 c -0.0599,0.13788 -0.15715,0.23173 -0.21093,0.37695 l -0.002,0.008 -0.004,0.01 c -0.26554,0.76711 -0.38477,1.63529 -0.38477,2.60547 v 8.84765 c 0,0.44731 -0.12006,0.72901 -0.38867,1.01758 -0.25908,0.25507 -0.51397,0.36914 -0.96094,0.36914 -0.44698,0 -0.70381,-0.11406 -0.96289,-0.36914 -0.2686,-0.28856 -0.38672,-0.57028 -0.38672,-1.01758 v -15.41796 c 0,-0.45313 0.11037,-0.71388 0.37305,-0.97657 l 0.01,-0.008 0.008,-0.01 c 0.26757,-0.28331 0.51727,-0.39257 0.95898,-0.39257 z m -64.54101,0.9414 c -0.003,0.003 -0.003,0.007 -0.006,0.01 -0.003,0.003 -0.007,0.005 -0.01,0.008 z m 22.25,0 c -0.005,0.005 -0.005,0.0106 -0.01,0.0156 -8.8e-4,10e-4 -0.003,9.1e-4 -0.004,0.002 z m -41.11133,2.79102 c 0.94676,0 1.71144,0.22559 2.38086,0.67187 0.68668,0.45779 1.20543,1.06521 1.59179,1.88086 l 0.006,0.008 0.004,0.01 c 0.40585,0.81169 0.61523,1.73528 0.61523,2.8125 0,1.04983 -0.20799,1.9609 -0.61523,2.77539 l -0.004,0.008 -0.006,0.008 c -0.38636,0.81565 -0.90511,1.42307 -1.59179,1.88086 -0.66942,0.44627 -1.4341,0.67187 -2.38086,0.67187 -0.91843,0 -1.67088,-0.2233 -2.34375,-0.67187 -0.68745,-0.4583 -1.22201,-1.07062 -1.63281,-1.88868 -0.38508,-0.81574 -0.58399,-1.73003 -0.58399,-2.7832 0,-1.07896 0.20116,-2.00601 0.58399,-2.81836 0.4109,-0.81879 0.94495,-1.43401 1.63281,-1.89258 0.67287,-0.44858 1.42533,-0.67187 2.34375,-0.67187 z m 67.79687,0 c 0.63756,0 1.20744,0.13751 1.75586,0.42187 l 0.0176,0.01 0.0176,0.008 c 0.58112,0.2698 1.03052,0.6258 1.39062,1.08594 l 0.008,0.01 0.006,0.008 c 0.18997,0.22998 0.20717,0.50034 0.30273,0.74609 h -7.36133 c 0.2131,-0.49487 0.43882,-0.95835 0.72266,-1.24219 0.37351,-0.37351 0.79449,-0.62832 1.31054,-0.78711 0.55514,-0.17081 1.16254,-0.25976 1.83008,-0.25976 z m -7.01758,4.07031 h 1.00196 c -0.0436,0.43998 -0.17578,0.77903 -0.17578,1.27344 0,0.23981 0.0598,0.44832 0.0762,0.67969 h -0.31641 z m -1.60742,0.83399 0.86914,2.89843 h 1.94532 c 0.14929,0.49611 0.30873,0.98693 0.56054,1.42188 l 0.006,0.0137 0.008,0.0117 c 0.64135,1.03174 1.47699,1.85627 2.48047,2.42969 l 0.0117,0.008 0.0137,0.008 c 1.01635,0.5364 2.11548,0.81055 3.25196,0.81055 0.969,0 1.76774,-0.0712 2.4375,-0.25391 0.6015,-0.16404 1.10922,-0.35853 1.53906,-0.62305 l 0.008,-0.006 0.008,-0.004 c 0.32748,-0.21051 0.61209,-0.38113 0.85743,-0.51563 0.34931,-0.17328 0.63401,-0.24023 0.86328,-0.24023 0.34527,0 0.5036,0.074 0.69336,0.27734 l 0.01,0.0117 0.0117,0.0117 c 0.23347,0.23346 0.29883,0.40052 0.29883,0.67578 0,0.36432 -0.14729,0.6926 -0.70508,1.13086 l -0.0117,0.01 -0.0137,0.01 c -0.52952,0.44806 -1.34601,0.89686 -2.44336,1.29492 -1.07678,0.36587 -2.1807,0.54883 -3.32812,0.54883 -1.98846,0 -3.66481,-0.40666 -5.08203,-1.1914 -1.40951,-0.81949 -2.47502,-1.89566 -3.24415,-3.27149 l -0.002,-0.004 c -0.74539,-1.37943 -1.12305,-2.93696 -1.12305,-4.72461 0,-0.26983 0.0665,-0.4807 0.0801,-0.73828 z"
       id="path2-5" /></g></svg>
